<svg width="300" height="25" viewBox="0 0 300 25" fill="none" xmlns="http://www.w3.org/2000/svg">
<path d="M6.95312 24H2.20312L2.23438 21.5469H6.95312C8.57812 21.5469 9.93229 21.2083 11.0156 20.5312C12.099 19.8438 12.9115 18.8854 13.4531 17.6562C14.0052 16.4167 14.2812 14.9688 14.2812 13.3125V11.9219C14.2812 10.6198 14.125 9.46354 13.8125 8.45312C13.5 7.43229 13.0417 6.57292 12.4375 5.875C11.8333 5.16667 11.0938 4.63021 10.2188 4.26562C9.35417 3.90104 8.35938 3.71875 7.23438 3.71875H2.10938V1.25H7.23438C8.72396 1.25 10.0833 1.5 11.3125 2C12.5417 2.48958 13.599 3.20312 14.4844 4.14062C15.3802 5.06771 16.0677 6.19271 16.5469 7.51562C17.026 8.82812 17.2656 10.3073 17.2656 11.9531V13.3125C17.2656 14.9583 17.026 16.4427 16.5469 17.7656C16.0677 19.0781 15.375 20.1979 14.4688 21.125C13.5729 22.0521 12.4896 22.7656 11.2188 23.2656C9.95833 23.7552 8.53646 24 6.95312 24ZM3.8125 1.25V24H0.796875V1.25H3.8125ZM30.375 3.26562L22.8438 24H19.7656L28.4375 1.25H30.4219L30.375 3.26562ZM36.6875 24L29.1406 3.26562L29.0938 1.25H31.0781L39.7812 24H36.6875ZM36.2969 15.5781V18.0469H23.5156V15.5781H36.2969ZM43.3281 1.25H50.8594C52.5677 1.25 54.0104 1.51042 55.1875 2.03125C56.375 2.55208 57.276 3.32292 57.8906 4.34375C58.5156 5.35417 58.8281 6.59896 58.8281 8.07812C58.8281 9.11979 58.6146 10.0729 58.1875 10.9375C57.7708 11.7917 57.1667 12.5208 56.375 13.125C55.5938 13.7188 54.6562 14.1615 53.5625 14.4531L52.7188 14.7812H45.6406L45.6094 12.3281H50.9531C52.0365 12.3281 52.9375 12.1406 53.6562 11.7656C54.375 11.3802 54.9167 10.8646 55.2812 10.2188C55.6458 9.57292 55.8281 8.85938 55.8281 8.07812C55.8281 7.20312 55.6562 6.4375 55.3125 5.78125C54.9688 5.125 54.4271 4.61979 53.6875 4.26562C52.9583 3.90104 52.0156 3.71875 50.8594 3.71875H46.3438V24H43.3281V1.25ZM56.625 24L51.0938 13.6875L54.2344 13.6719L59.8438 23.8125V24H56.625ZM66.5625 1.25V24H63.5469V1.25H66.5625ZM80.2969 1.25L70.8438 11.8594L65.5312 17.375L65.0312 14.1562L69.0312 9.75L76.6719 1.25H80.2969ZM77.3906 24L68.9688 12.9062L70.7656 10.5156L80.9844 24H77.3906ZM92.5781 1.25H100.109C101.818 1.25 103.26 1.51042 104.438 2.03125C105.625 2.55208 106.526 3.32292 107.141 4.34375C107.766 5.35417 108.078 6.59896 108.078 8.07812C108.078 9.11979 107.865 10.0729 107.438 10.9375C107.021 11.7917 106.417 12.5208 105.625 13.125C104.844 13.7188 103.906 14.1615 102.812 14.4531L101.969 14.7812H94.8906L94.8594 12.3281H100.203C101.286 12.3281 102.188 12.1406 102.906 11.7656C103.625 11.3802 104.167 10.8646 104.531 10.2188C104.896 9.57292 105.078 8.85938 105.078 8.07812C105.078 7.20312 104.906 6.4375 104.562 5.78125C104.219 5.125 103.677 4.61979 102.938 4.26562C102.208 3.90104 101.266 3.71875 100.109 3.71875H95.5938V24H92.5781V1.25ZM105.875 24L100.344 13.6875L103.484 13.6719L109.094 23.8125V24H105.875ZM130.312 11.9062V13.3438C130.312 15.0521 130.099 16.5833 129.672 17.9375C129.245 19.2917 128.63 20.4427 127.828 21.3906C127.026 22.3385 126.062 23.0625 124.938 23.5625C123.823 24.0625 122.573 24.3125 121.188 24.3125C119.844 24.3125 118.609 24.0625 117.484 23.5625C116.37 23.0625 115.401 22.3385 114.578 21.3906C113.766 20.4427 113.135 19.2917 112.688 17.9375C112.24 16.5833 112.016 15.0521 112.016 13.3438V11.9062C112.016 10.1979 112.234 8.67188 112.672 7.32812C113.12 5.97396 113.75 4.82292 114.562 3.875C115.375 2.91667 116.339 2.1875 117.453 1.6875C118.578 1.1875 119.812 0.9375 121.156 0.9375C122.542 0.9375 123.792 1.1875 124.906 1.6875C126.031 2.1875 126.995 2.91667 127.797 3.875C128.609 4.82292 129.229 5.97396 129.656 7.32812C130.094 8.67188 130.312 10.1979 130.312 11.9062ZM127.328 13.3438V11.875C127.328 10.5208 127.188 9.32292 126.906 8.28125C126.635 7.23958 126.234 6.36458 125.703 5.65625C125.172 4.94792 124.521 4.41146 123.75 4.04688C122.99 3.68229 122.125 3.5 121.156 3.5C120.219 3.5 119.37 3.68229 118.609 4.04688C117.859 4.41146 117.214 4.94792 116.672 5.65625C116.141 6.36458 115.729 7.23958 115.438 8.28125C115.146 9.32292 115 10.5208 115 11.875V13.3438C115 14.7083 115.146 15.9167 115.438 16.9688C115.729 18.0104 116.146 18.8906 116.688 19.6094C117.24 20.3177 117.891 20.8542 118.641 21.2188C119.401 21.5833 120.25 21.7656 121.188 21.7656C122.167 21.7656 123.036 21.5833 123.797 21.2188C124.557 20.8542 125.198 20.3177 125.719 19.6094C126.25 18.8906 126.651 18.0104 126.922 16.9688C127.193 15.9167 127.328 14.7083 127.328 13.3438ZM143.406 3.26562L135.875 24H132.797L141.469 1.25H143.453L143.406 3.26562ZM149.719 24L142.172 3.26562L142.125 1.25H144.109L152.812 24H149.719ZM149.328 15.5781V18.0469H136.547V15.5781H149.328ZM168.484 18.25C168.484 17.7188 168.401 17.25 168.234 16.8438C168.078 16.4271 167.797 16.0521 167.391 15.7188C166.995 15.3854 166.443 15.0677 165.734 14.7656C165.036 14.4635 164.151 14.1562 163.078 13.8438C161.953 13.5104 160.938 13.1406 160.031 12.7344C159.125 12.3177 158.349 11.8438 157.703 11.3125C157.057 10.7812 156.562 10.1719 156.219 9.48438C155.875 8.79688 155.703 8.01042 155.703 7.125C155.703 6.23958 155.885 5.42188 156.25 4.67188C156.615 3.92188 157.135 3.27083 157.812 2.71875C158.5 2.15625 159.318 1.71875 160.266 1.40625C161.214 1.09375 162.271 0.9375 163.438 0.9375C165.146 0.9375 166.594 1.26562 167.781 1.92188C168.979 2.56771 169.891 3.41667 170.516 4.46875C171.141 5.51042 171.453 6.625 171.453 7.8125H168.453C168.453 6.95833 168.271 6.20312 167.906 5.54688C167.542 4.88021 166.99 4.35938 166.25 3.98438C165.51 3.59896 164.573 3.40625 163.438 3.40625C162.365 3.40625 161.479 3.56771 160.781 3.89062C160.083 4.21354 159.562 4.65104 159.219 5.20312C158.885 5.75521 158.719 6.38542 158.719 7.09375C158.719 7.57292 158.818 8.01042 159.016 8.40625C159.224 8.79167 159.542 9.15104 159.969 9.48438C160.406 9.81771 160.958 10.125 161.625 10.4062C162.302 10.6875 163.109 10.9583 164.047 11.2188C165.339 11.5833 166.453 11.9896 167.391 12.4375C168.328 12.8854 169.099 13.3906 169.703 13.9531C170.318 14.5052 170.771 15.1354 171.062 15.8438C171.365 16.5417 171.516 17.3333 171.516 18.2188C171.516 19.1458 171.328 19.9844 170.953 20.7344C170.578 21.4844 170.042 22.125 169.344 22.6562C168.646 23.1875 167.807 23.599 166.828 23.8906C165.859 24.1719 164.776 24.3125 163.578 24.3125C162.526 24.3125 161.49 24.1667 160.469 23.875C159.458 23.5833 158.536 23.1458 157.703 22.5625C156.88 21.9792 156.219 21.2604 155.719 20.4062C155.229 19.5417 154.984 18.5417 154.984 17.4062H157.984C157.984 18.1875 158.135 18.8594 158.438 19.4219C158.74 19.974 159.151 20.4323 159.672 20.7969C160.203 21.1615 160.802 21.4323 161.469 21.6094C162.146 21.776 162.849 21.8594 163.578 21.8594C164.63 21.8594 165.521 21.7135 166.25 21.4219C166.979 21.1302 167.531 20.7135 167.906 20.1719C168.292 19.6302 168.484 18.9896 168.484 18.25ZM184.266 1.25V24H181.297V1.25H184.266ZM191.578 1.25V3.71875H174V1.25H191.578ZM211.375 13.3594H205.609L205.578 10.9375H210.812C211.677 10.9375 212.432 10.7917 213.078 10.5C213.724 10.2083 214.224 9.79167 214.578 9.25C214.943 8.69792 215.125 8.04167 215.125 7.28125C215.125 6.44792 214.964 5.77083 214.641 5.25C214.328 4.71875 213.844 4.33333 213.188 4.09375C212.542 3.84375 211.719 3.71875 210.719 3.71875H206.281V24H203.266V1.25H210.719C211.885 1.25 212.927 1.36979 213.844 1.60938C214.76 1.83854 215.536 2.20312 216.172 2.70312C216.818 3.19271 217.307 3.81771 217.641 4.57812C217.974 5.33854 218.141 6.25 218.141 7.3125C218.141 8.25 217.901 9.09896 217.422 9.85938C216.943 10.6094 216.276 11.224 215.422 11.7031C214.578 12.1823 213.589 12.4896 212.453 12.625L211.375 13.3594ZM211.234 24H204.422L206.125 21.5469H211.234C212.193 21.5469 213.005 21.3802 213.672 21.0469C214.349 20.7135 214.865 20.2448 215.219 19.6406C215.573 19.026 215.75 18.3021 215.75 17.4688C215.75 16.625 215.599 15.8958 215.297 15.2812C214.995 14.6667 214.521 14.1927 213.875 13.8594C213.229 13.526 212.396 13.3594 211.375 13.3594H207.078L207.109 10.9375H212.984L213.625 11.8125C214.719 11.9062 215.646 12.2188 216.406 12.75C217.167 13.2708 217.745 13.9375 218.141 14.75C218.547 15.5625 218.75 16.4583 218.75 17.4375C218.75 18.8542 218.438 20.0521 217.812 21.0312C217.198 22 216.328 22.7396 215.203 23.25C214.078 23.75 212.755 24 211.234 24ZM237.5 21.5469V24H226.125V21.5469H237.5ZM226.719 1.25V24H223.703V1.25H226.719ZM255.906 21.5469V24H243.859V21.5469H255.906ZM244.469 1.25V24H241.453V1.25H244.469ZM254.312 11.0312V13.4844H243.859V11.0312H254.312ZM255.75 1.25V3.71875H243.859V1.25H255.75ZM277.641 1.25V24H274.609L263.156 6.45312V24H260.141V1.25H263.156L274.656 18.8438V1.25H277.641ZM289.641 24H284.891L284.922 21.5469H289.641C291.266 21.5469 292.62 21.2083 293.703 20.5312C294.786 19.8438 295.599 18.8854 296.141 17.6562C296.693 16.4167 296.969 14.9688 296.969 13.3125V11.9219C296.969 10.6198 296.812 9.46354 296.5 8.45312C296.188 7.43229 295.729 6.57292 295.125 5.875C294.521 5.16667 293.781 4.63021 292.906 4.26562C292.042 3.90104 291.047 3.71875 289.922 3.71875H284.797V1.25H289.922C291.411 1.25 292.771 1.5 294 2C295.229 2.48958 296.286 3.20312 297.172 4.14062C298.068 5.06771 298.755 6.19271 299.234 7.51562C299.714 8.82812 299.953 10.3073 299.953 11.9531V13.3125C299.953 14.9583 299.714 16.4427 299.234 17.7656C298.755 19.0781 298.062 20.1979 297.156 21.125C296.26 22.0521 295.177 22.7656 293.906 23.2656C292.646 23.7552 291.224 24 289.641 24ZM286.5 1.25V24H283.484V1.25H286.5Z" fill="black"/>
</svg>
