<svg width="1395.000000" height="938.000000" viewBox="0 0 1395 938" fill="none" xmlns="http://www.w3.org/2000/svg" xmlns:xlink="http://www.w3.org/1999/xlink">
	<desc>
			Created with Pixso.
	</desc>
	<defs>
		<clipPath id="clip1_503">
			<rect id="IMAGE" width="1395.000000" height="938.000000" fill="white" fill-opacity="0"/>
		</clipPath>
	</defs>
	<g clip-path="url(#clip1_503)">
		<path id="Vector" d="M1083.68 685.55C1086.59 683.27 1089.52 681.04 1092.38 678.71C1110.18 664.18 1130.02 653.36 1151.79 646.12C1162.78 642.47 1173.94 639.32 1185 635.84C1190.88 633.98 1196.76 632.06 1202.51 629.86C1209.43 627.22 1216.17 624.12 1221.71 618.96C1222.24 618.46 1222.88 618.05 1223.53 617.71C1224.72 617.09 1226.06 617.05 1226.93 618.06C1227.69 618.91 1228.56 620.2 1228.43 621.18C1228.18 623.09 1227.43 624.97 1226.66 626.77C1222.6 636.19 1216.57 644.28 1209.63 651.74C1202.19 659.71 1193.86 666.66 1185.39 673.49C1174.96 681.92 1165.64 691.39 1158.37 702.76C1154.35 709.06 1151.19 715.74 1149.61 723.05C1148.92 726.15 1148.52 729.4 1148.6 732.57C1148.73 738.39 1151.65 741.64 1157.34 742.82C1164.61 744.33 1171.18 742.51 1176.61 737.66C1180.43 734.22 1184.02 730.34 1187.01 726.15C1191.31 720.12 1195.25 713.85 1198.82 707.36C1203.71 698.5 1208.09 689.36 1212.69 680.35C1220.36 665.38 1228.75 650.85 1239.54 637.85C1260.17 613.03 1284.88 593.25 1313.54 578.42C1325.21 572.37 1337.68 568.44 1350.21 564.64C1357.52 562.42 1364.88 560.33 1372.13 557.89C1377.79 555.99 1383.55 555 1389.44 554.24C1396.04 553.39 1402.57 552.02 1409.11 550.84C1409.83 550.71 1410.53 550.41 1411.21 550.11C1412.39 549.58 1413.55 548.72 1413.08 547.36C1412.73 546.33 1411.77 545.2 1410.79 544.77C1409.78 544.33 1408.4 544.52 1407.23 544.72C1401.39 545.74 1395.58 546.83 1389.78 547.98C1386.83 548.57 1384.62 547.83 1382.56 545.52C1372.46 534.15 1370.04 521.28 1374.54 506.91C1376.95 499.23 1381.3 492.66 1386.28 486.49C1398.93 470.81 1414.27 458.72 1433.18 451.41C1441.01 448.38 1448.79 445.27 1456.54 442.03C1461.77 439.84 1466.95 437.51 1472.01 434.95C1480.82 430.49 1486.3 423.02 1489.96 414.08C1491.98 409.12 1492.1 404.02 1491.12 398.79C1490.06 393.22 1489.33 387.59 1488.31 382.01C1486.93 374.46 1488.37 367.31 1491.04 360.28C1494.36 351.6 1499.43 344.08 1505.97 337.53C1518.09 325.4 1531.56 315.1 1546.91 307.3C1554.83 303.28 1562.7 299.15 1570.48 294.86C1584.38 287.2 1597.11 277.84 1609.17 267.59C1620.57 257.9 1629.68 246.25 1637.24 233.39C1638.73 230.85 1639.6 227.95 1641.02 225.36C1641.83 223.91 1643.03 222.59 1644.31 221.53C1645.64 220.42 1648.04 221.41 1648.5 223.09C1648.75 224.04 1648.89 225.02 1649.01 225.99C1651.03 241.8 1650.83 257.56 1647.09 273.09C1642.16 293.51 1631.64 310.92 1617.31 326.06C1611.37 332.34 1605.06 338.27 1598.9 344.33C1592.54 350.58 1586.73 357.3 1581.87 364.79C1580.26 367.27 1578.66 369.8 1577.46 372.48C1573.04 382.41 1573.12 391.99 1579.55 401.27C1584.6 408.57 1589.37 416.08 1593.97 423.68C1598.59 431.31 1602.1 439.46 1604.26 448.17C1607.69 461.96 1607.34 475.54 1602.52 488.96C1593.83 513.13 1578.39 531.8 1556.54 545.14C1553.63 546.92 1550.34 548.22 1547.05 549.17C1529.75 554.19 1512.32 558.63 1494.46 561.24C1491.8 561.62 1489.15 562.32 1486.6 563.16C1485.93 563.38 1485.18 564.73 1485.27 565.47C1485.37 566.21 1486.4 567.37 1487.1 567.42C1490.02 567.66 1493.04 567.99 1495.89 567.49C1505.35 565.81 1514.79 563.93 1524.17 561.86C1530.67 560.43 1537.08 558.62 1543.52 556.91C1545.93 556.27 1547.98 556.71 1549.48 558.69C1551.41 561.23 1553.62 563.68 1554.96 566.52C1561 579.33 1562.17 592.51 1557.46 606.09C1554.1 615.81 1549.11 624.48 1542.04 631.96C1535.23 639.17 1527.84 645.72 1519.74 651.41C1502.96 663.18 1486.05 674.76 1469.26 686.51C1461.58 691.89 1453.95 697.35 1446.49 703.03C1439.6 708.28 1433.35 714.27 1427.64 720.79C1423.05 726.02 1419.21 731.73 1416.25 738.04C1413.88 743.09 1413.31 748.38 1413.4 753.91C1413.49 760.16 1420.32 766.65 1427.75 765.79C1430.66 765.45 1433.59 764.67 1436.32 763.57C1449 758.48 1460.82 751.82 1471.03 742.66C1474.86 739.22 1478.15 735.15 1481.62 731.32C1482.78 730.04 1483.7 728.55 1484.87 727.28C1487.31 724.67 1490.5 725.23 1491.94 728.62C1492.71 730.44 1493.24 732.35 1493.53 734.3C1495.71 749.06 1492.68 762.77 1484.91 775.45C1479.45 784.39 1472.6 792.15 1464.24 798.47C1459.52 802.05 1454.59 805.33 1449.71 808.69C1443.59 812.88 1437.37 816.89 1431.34 821.18C1426.08 824.91 1421.61 829.65 1418.22 835.13C1415.18 840.02 1413.25 845.26 1412.86 851.1C1412.36 858.75 1410.76 866.23 1408.64 873.61C1407.39 877.97 1405.39 881.93 1402.38 885.25C1398.91 889.09 1395.15 892.66 1391.46 896.31C1389.06 898.69 1386.11 899.61 1382.73 899.66C1369.64 899.84 1356.56 900.26 1343.48 900.36C1318.04 900.56 1292.6 900.58 1267.17 900.73C1231.37 900.94 1195.56 901.2 1159.76 901.46C1124.44 901.71 1089.14 901.97 1053.84 902.25C1019.26 902.51 984.69 902.81 950.12 903.06C918.02 903.3 885.92 903.49 853.82 903.73C815.3 904.01 776.78 904.33 738.26 904.62C702.46 904.89 666.65 905.13 630.85 905.4C595.78 905.66 560.72 905.94 525.66 906.2C490.35 906.46 455.04 906.68 419.73 906.94C383.92 907.2 348.12 907.47 312.32 907.74C277.75 908.01 243.18 908.3 208.61 908.55C176.26 908.78 143.92 908.97 111.58 909.2C72.31 909.48 33.05 909.76 -6.21 910.1C-34.35 910.34 -62.5 910.67 -90.65 910.92C-93.61 910.94 -96.57 910.8 -99.52 910.49C-100.98 910.33 -102.4 909.87 -103.68 909.14C-106.94 907.23 -107.23 902.74 -104.31 900.37C-103.36 899.61 -102.23 899.07 -101.16 898.47C-82.25 887.83 -67.1 873.28 -55.77 854.77C-49.06 843.81 -43.61 832.17 -38.13 820.57C-36.13 816.35 -34.85 811.79 -33.36 807.34C-18.64 763.5 2.48 722.9 28.51 684.75C41.89 665.16 55.79 645.99 71.34 628.03C86.09 611 102.38 595.57 119.21 580.64C148.5 554.63 181.92 535.29 217.49 519.4C221.54 517.59 225.68 515.96 229.8 514.31C245.15 508.17 260.59 502.26 275.83 495.87C293.36 488.52 310.43 480.16 327.31 471.42C336.19 466.82 343.59 460.33 350.91 453.68C364.56 441.28 375.49 426.71 385.4 411.27C394.47 397.14 403.6 383.05 412.8 369.01C421.78 355.31 432.59 343.12 444.42 331.85C447.63 328.79 451.09 325.95 454.67 323.35C466.48 314.77 478.91 307.21 492.06 300.84C507.18 293.51 522.79 287.4 538.68 281.94C546.84 279.14 554.96 276.22 563.16 273.52C574.71 269.72 585.59 264.51 596.01 258.3C606.14 252.26 614.69 244.61 620.37 234.05C623.06 229.05 626.06 224.22 628.77 219.23C639.27 199.89 653.23 183.34 669.78 168.99C686.28 154.68 705.51 145.36 726.44 139.45C733.8 137.37 741.28 135.75 748.84 134.61C755.65 133.59 762.39 131.94 769.07 130.24C772.44 129.37 774.83 130.47 777.02 132.71C778.15 133.86 777.85 136.57 776.39 137.27C774.86 138.01 773.21 138.62 771.54 138.94C748.91 143.25 730.51 155.21 713.99 170.62C706.83 177.29 701.64 185.36 697.49 194.13C692.51 204.64 688.57 215.48 686.43 227.01C684.59 236.95 681.92 246.73 678.34 256.22C673.49 269.07 666.07 280.38 657.59 291.08C648.24 302.88 636.86 312.22 623.63 319.26C614.92 323.9 606 328.13 597.17 332.54C588.56 336.83 579.9 341.02 571.34 345.42C564.92 348.72 559.31 353.17 554.29 358.35C552.74 359.93 551.34 361.67 549.92 363.38C543.81 370.76 541.96 379.11 544.45 388.36C546.46 395.77 547.13 403.47 546.44 411.12C545.26 424.42 539.83 435.29 528.24 442.55C525.52 444.26 522.73 445.84 519.97 447.48C515.52 450.11 510.96 452.6 506.62 455.42C503.69 457.32 500.69 458.79 497.35 459.89C486.94 463.31 477.37 468.39 469.06 475.61C466.66 477.69 464.59 480.19 462.49 482.6C461.87 483.3 461.37 484.35 461.36 485.25C461.36 486.09 461.92 487.09 462.53 487.73C462.94 488.16 464.1 488.45 464.54 488.18C467.02 486.6 469.57 485.05 471.75 483.1C476.76 478.61 482.31 474.98 488.22 471.85C489.09 471.39 490.01 471.05 490.94 470.71C491.97 470.34 492.22 471.17 492.26 471.85C493.38 489.76 486.11 504.07 472.87 515.49C467.28 520.32 461.07 524.43 455.01 528.68C446.92 534.35 438.62 539.71 431.25 546.34C423.85 553 417.52 560.53 412.41 569.07C410.24 572.69 408.46 576.47 408.43 580.85C408.41 584.68 410.42 587.57 414.18 588.35C416.06 588.75 418.11 588.81 420.01 588.55C424.94 587.87 429.54 586.04 434.04 584C459.2 572.55 479.33 555.24 494.46 532.11C497.43 527.56 500.36 522.98 503.1 518.3C515.99 496.34 532.44 477.47 551.77 460.97C562.5 451.81 573.48 443.05 585.6 435.8C586.86 435.04 588.09 434.03 589.46 433.72C590.47 433.49 592.07 433.87 592.73 434.59C593.4 435.33 593.51 436.85 593.37 437.97C593.26 438.84 592.49 439.71 591.84 440.41C590.85 441.5 589.75 442.51 588.61 443.46C579.03 451.5 571.78 461.47 565.13 471.92C560.18 479.69 556.7 488.13 554.51 497.06C552.29 506.16 550.36 515.34 548.33 524.49C546.56 532.46 544.17 540.23 540.79 547.68C537.07 555.86 531.97 563.07 525.83 569.6C519.48 576.37 511.94 581.4 503.5 585.17C495.62 588.69 487.72 592.18 479.89 595.82C477.22 597.06 474.66 598.61 472.21 600.25C471.05 601.04 470.06 602.28 469.38 603.54C468.99 604.25 469.07 605.62 469.53 606.27C469.98 606.91 471.33 607.47 472.04 607.26C474.61 606.46 477.11 605.4 479.58 604.29C483.85 602.38 488.08 600.35 492.33 598.39C492.74 598.21 493.37 598.02 493.66 598.21C493.95 598.39 494.16 599.1 494.06 599.47C490.34 612.51 486.56 625.53 482.84 638.57C478.47 653.89 469.46 665.93 456.9 675.47C450 680.72 442.7 685.43 434.68 688.69C428.77 691.09 422.57 692.9 416.35 694.39C397.35 698.91 378.18 702.24 358.53 701.85C356.36 701.81 354.17 702.33 352.03 702.8C351.52 702.92 350.9 703.84 350.84 704.43C350.79 705.02 351.25 705.87 351.76 706.24C352.51 706.81 353.48 707.29 354.4 707.39C358.32 707.83 362.2 708.23 366.19 708.12C380.55 707.71 394.68 705.54 408.7 702.66C411.58 702.07 413.5 702.87 415.25 704.82C417.98 707.84 419.64 711.32 419.89 715.46C420.22 721 419.37 726.26 416.84 731.26C414.14 736.6 410.81 741.52 406.39 745.53C400.55 750.84 394.46 755.88 388.46 761.01C384.51 764.37 380.44 767.6 376.57 771.05C371.38 775.67 366.78 780.85 363.37 786.93C360.24 792.52 358.91 798.42 361.3 804.71C362.94 809.04 365.53 812.64 369.89 814.4C373.05 815.68 376.43 817.01 379.78 817.19C402.52 818.39 422.66 811.8 439.47 796.12C445.15 790.82 449.2 784.26 451.78 776.97C454.58 769.07 456.87 760.99 459.34 752.98C461.38 746.38 463.12 739.68 465.41 733.17C471.14 716.91 480.04 702.5 491.24 689.41C511.7 665.51 537.09 648.35 565.24 634.93C580.63 629.56 593.78 620.37 606.37 610.37C611.95 605.93 616.86 600.66 622.06 595.75C623.14 594.73 624.07 593.57 625.18 592.6C626.19 591.73 628.24 591.8 629.38 592.58C630.51 593.34 630.85 594.49 630.85 595.78C630.85 596.27 630.84 596.78 630.7 597.24C627.14 609.05 624.25 621.07 618.01 631.91C611.83 642.64 604.97 652.86 596.73 662.15C592.48 666.95 588.42 671.93 584.47 676.99C576.17 687.62 572.1 699.84 570.82 713.19C570.2 719.56 569.08 725.9 567.88 732.19C565.23 746.16 558.65 758.15 549 768.49C547.15 770.48 545.19 772.36 543.32 774.33C543.02 774.65 542.95 775.19 542.78 775.63C543.21 775.73 543.71 776.01 544.08 775.89C546.42 775.12 548.82 774.47 551.03 773.4C562.42 767.9 572.99 761.14 582.51 752.76C601.83 735.72 615.53 714.92 624.34 690.8C631.37 671.55 638.28 652.27 645.46 633.09C652.12 615.28 659 597.56 667.99 580.75C674.76 568.1 682.43 556.02 690.95 544.48C704.02 526.79 720.03 512.25 738.55 500.47C746.05 495.71 753.57 490.93 761.39 486.74C767.02 483.71 770.54 479.33 772.46 473.51C773.62 470.01 774.47 466.39 775.21 462.77C780.92 435.02 793.49 410.73 812.33 389.71C823.63 377.09 836.75 366.69 852.1 359.31C858.99 355.99 865.92 352.73 872.82 349.45C877.06 347.43 881.31 345.45 885.52 343.39C893.82 339.35 901.06 333.86 907.5 327.25C912.38 322.25 916.42 316.71 919.18 310.27C920.83 306.41 922.61 302.61 924.21 298.73C930.89 282.44 941.16 268.72 953.9 256.71C976.07 235.79 1001.91 221.44 1031.24 213.32C1038.89 211.21 1046.68 210.12 1054.62 209.85C1058.06 209.74 1061.49 209.2 1064.93 208.96C1068.38 208.72 1071.82 208.68 1075.28 208.44C1078.99 208.19 1081.23 210.38 1083.19 213.04C1084.18 214.36 1083.79 216.74 1082.26 217.62C1080.35 218.71 1078.31 219.6 1076.26 220.41C1070.75 222.58 1065.09 224.39 1059.71 226.82C1039.68 235.83 1021.99 248.24 1006.25 263.52C995.22 274.23 987.26 286.8 982.47 301.41C978.94 312.19 975.59 323.05 971.72 333.71C966.12 349.13 957.98 363.25 948.24 376.4C937.61 390.75 923.87 401.61 908.25 409.94C899.32 414.69 893.93 421.65 891.19 431.14C888.36 440.94 887.06 450.93 886.94 461.09C886.87 466.77 886.91 472.45 886.83 478.13C886.79 481.34 886.64 484.55 886.47 487.76C886.17 493.53 884.49 498.86 881.58 503.88C874.09 516.79 865.03 528.46 854.08 538.59C845.74 546.32 836.92 553.49 827.42 559.77C823.31 562.49 818.91 564.76 814.7 567.33C813.26 568.22 811.94 569.34 810.75 570.54C810.38 570.91 810.42 572.01 810.69 572.57C810.96 573.13 811.73 573.76 812.31 573.79C813.51 573.85 814.84 573.79 815.89 573.3C819.68 571.53 823.53 569.82 827.08 567.63C838.47 560.6 848.76 552.11 858.67 543.17C859.77 542.18 860.85 541.15 861.89 540.1C863.21 538.76 864.81 538.41 866.62 538.51C871.75 538.78 876.23 540.61 879.98 544.12C884.21 548.08 887.22 552.82 889.1 558.31C892.22 567.41 892.46 576.71 890.91 586.09C888.79 598.87 884.1 610.79 878.65 622.46C870.33 640.23 859.42 656.37 847.55 671.9C842.45 678.56 837.12 685.05 831.89 691.62C827.86 696.68 823.11 700.98 818.09 705.01C808.06 713.04 797.71 720.62 786.57 727.08C783.8 728.69 781.13 730.48 778.45 732.25C777.64 732.78 776.83 733.43 776.29 734.21C775.94 734.72 775.8 735.72 776.08 736.22C776.37 736.75 777.29 737.3 777.89 737.25C779.33 737.13 780.85 736.88 782.16 736.28C785.51 734.73 788.94 733.22 792.02 731.22C799.68 726.25 807.54 721.47 814.6 715.73C819.9 711.42 825.34 711.17 831.23 712.45C839.31 714.19 843.73 720.36 843.29 728.7C843.04 733.47 841.41 737.86 839.38 742.12C834.88 751.56 828.77 759.94 822 767.82C817.01 773.62 811.79 779.23 806.54 784.8C801.97 789.65 797.13 794.25 792.59 799.13C790.56 801.31 787.44 802.77 787.17 806.31C790.29 806.81 792.84 805.09 795.56 804.09C803.03 801.36 809.91 797.46 816.27 792.75C825.2 786.15 833.92 779.25 842.75 772.5C852.76 764.84 863.05 757.59 874.54 752.25C878.11 750.59 881.76 749.05 885.47 747.74C888.01 746.84 890.69 746.11 893.37 745.86C898.27 745.4 902.6 746.58 905.59 751.07C907.84 754.45 908 754.33 910.37 750.95C915.39 743.75 918.67 735.81 920.26 727.2C921.88 718.47 923.25 709.69 924.87 700.96C928.04 683.81 934.13 667.7 942.57 652.49C945.45 647.31 948.61 642.29 951.76 637.27C965.19 615.89 983.2 599.29 1005.15 587.02C1017.85 579.91 1030.88 573.39 1043.8 566.69C1058.69 558.97 1073.75 551.54 1088.55 543.63C1104.48 535.11 1119.36 524.94 1133.17 513.25C1135.6 511.18 1137.84 508.87 1140.14 506.66C1140.31 506.51 1140.48 506.17 1140.41 506.03C1140.34 505.85 1140.02 505.7 1139.78 505.69C1139.31 505.66 1138.8 505.66 1138.32 505.77C1131.99 507.3 1125.57 506.86 1119.17 506.59C1118.43 506.56 1117.68 506.49 1116.96 506.36C1103.38 503.95 1097.36 494 1098.46 482.79C1098.93 477.83 1100.37 473.14 1102.43 468.6C1106.79 458.96 1113.63 451.22 1121.17 444.02C1129.24 436.32 1138.15 429.68 1147.52 423.68C1157.71 417.17 1168.1 410.94 1178.21 404.32C1186.26 399.05 1194.25 393.63 1201.9 387.81C1210.96 380.9 1219.14 373.02 1225.6 363.51C1227.99 360 1229.87 356.3 1230.92 352.18C1237.28 327.44 1250.15 306.32 1267.04 287.5C1279.64 273.45 1294.1 261.55 1309.64 250.89C1325.13 240.25 1341.56 231.19 1357.98 222.1C1372.45 214.1 1387.02 206.24 1401.16 197.69C1417.08 188.06 1431.33 176.24 1443.53 162.09C1449.37 155.34 1454.46 148.06 1458.69 140.21C1460.41 137 1462.18 133.77 1461.13 129.72C1460.52 127.4 1462.26 125.54 1463.87 123.96C1465.21 122.65 1468.22 123.38 1468.91 125.16C1469.25 126.06 1469.52 127.05 1469.56 128.02C1469.74 132.46 1469.87 136.9 1469.96 141.35C1470.16 150.59 1468.23 159.48 1465.44 168.24C1460.09 185.06 1452.13 200.62 1442.68 215.47C1434.04 229.05 1424.07 241.6 1413.33 253.57C1397.97 270.68 1381.33 286.51 1364.66 302.32C1358.39 308.26 1352.32 314.41 1346.29 320.61C1336.07 331.14 1329.86 343.94 1325.85 357.89C1324.21 363.58 1322.79 369.33 1321.38 375.08C1316.01 397.15 1305.17 416.29 1290.56 433.5C1281.26 444.47 1270.99 454.37 1259.38 462.9C1255.75 465.56 1251.91 467.6 1247.52 468.72C1235.81 471.71 1224.19 475.09 1212.11 476.27C1210.68 476.4 1209.26 477.03 1207.94 477.67C1207.43 477.92 1206.98 478.86 1207 479.46C1207.03 480.08 1207.55 480.97 1208.07 481.21C1209.16 481.69 1210.4 481.96 1211.61 482.06C1217.59 482.56 1223.39 481.17 1229.18 479.96C1233.76 479 1238.28 477.74 1242.81 476.56C1244.86 476.02 1246.64 476.34 1248.4 477.57C1258.51 484.64 1264.34 494.27 1265.57 506.53C1266.93 519.85 1264.68 532.59 1258.92 544.71C1253.01 557.12 1244.76 567.84 1235.25 577.65C1226.98 586.19 1217.84 593.72 1208.23 600.71C1193.81 611.19 1178.47 620.13 1162.66 628.3C1152.13 633.73 1141.56 639.06 1131.11 644.66C1117.56 651.94 1104.91 660.5 1094.21 671.69C1090.99 675.07 1088.04 678.75 1085.12 682.4C1084.4 683.29 1084.25 684.63 1083.85 685.77C1083.65 685.91 1083.47 686.04 1083.28 686.18C1083.43 685.94 1083.56 685.75 1083.68 685.55Z" fill="#CEFD3B" fill-opacity="1.000000" fill-rule="nonzero"/>
		<path id="Vector" d="M1040.09 390.77C1037.38 390.76 1034.66 390.71 1031.94 390.73C1030.23 390.74 1028.44 390.62 1026.8 390.99C1025.74 391.22 1024.66 392.06 1023.95 392.93C1023.29 393.73 1024.81 395.46 1026.59 395.87C1033.38 397.46 1040.23 397.82 1047.17 397.16C1056.51 396.29 1065.78 395 1074.93 392.92C1076.53 392.55 1077.84 392.71 1079.06 393.69C1085.68 398.99 1090.65 405.39 1090.73 414.22C1090.77 418.34 1089.96 422.57 1088.9 426.58C1086.93 434.06 1083.02 440.67 1078.67 447C1071.46 457.51 1062.32 466.09 1052.14 473.64C1041.61 481.45 1030.4 488.15 1018.87 494.38C1004.77 502.01 990.67 509.66 976.64 517.43C972.33 519.82 968.28 522.67 964.1 525.29C946.48 536.39 934.85 552.22 927.5 571.45C926.7 573.52 926.01 575.64 925.14 577.67C924.53 579.07 922.91 579.79 921.46 579.56C920.01 579.32 918.7 578.12 918.68 576.54C918.62 572.35 918.33 568.09 918.87 563.97C920.06 554.93 921.22 545.83 923.28 536.96C928.99 512.41 939.98 490.65 958.44 473.03C970.62 461.41 984.66 453.02 1000.65 447.81C1003.46 446.89 1006.26 445.94 1009.03 444.89C1010.4 444.37 1011.79 443.74 1012.92 442.82C1013.52 442.34 1013.75 441.13 1013.71 440.27C1013.7 439.84 1012.66 439.09 1012.12 439.13C1009.45 439.29 1006.68 439.32 1004.13 440.04C999.86 441.24 995.73 442.91 991.57 444.43C989.72 445.11 987.85 445.79 986.09 446.66C984.08 447.64 982.32 447.29 980.48 446.3C969.11 440.25 962.76 431.04 962.12 417.96C961.31 401.43 967.58 387.61 978.08 375.41C987.54 364.43 999.08 356.03 1011.54 348.79C1023.76 341.71 1036.81 336.52 1049.84 331.2C1056.68 328.41 1063.53 325.59 1070.35 322.72C1079.02 319.06 1087.21 314.53 1094.85 309.02C1100.91 304.65 1106.13 299.44 1110.62 293.5C1116 286.4 1120.81 278.96 1125.04 271.1C1129.13 263.49 1133.44 256.01 1138.75 249.14C1148.84 236.03 1161.56 225.96 1175.66 217.55C1186.68 210.96 1198.02 204.98 1210.41 201.27C1211.59 200.92 1212.74 200.39 1213.93 200.2C1216.78 199.73 1219.25 202.58 1218.39 205.39C1217.96 206.78 1217.3 208.17 1216.43 209.34C1214.68 211.71 1212.82 214.04 1210.81 216.21C1195.73 232.45 1183.63 250.69 1174.67 270.95C1171.59 277.93 1169.15 285.2 1166.49 292.37C1165.29 295.6 1164.32 298.93 1163.21 302.19C1155.63 324.18 1142.89 342.67 1125.35 357.85C1117.5 364.63 1109.46 371.18 1100.71 376.8C1096.1 379.75 1091.22 381.98 1085.94 383.49C1070.93 387.76 1055.76 390.81 1040.09 390.77ZM574 539.6C573.17 539.44 572.69 539.35 572.21 539.25C570.78 538.93 569.84 536.89 570.72 535.73C571.45 534.78 572.3 533.8 573.32 533.23C574.59 532.52 576.04 531.95 577.48 531.75C583.33 530.95 587.21 527.25 590.69 522.98C597.1 515.12 602.62 506.63 607.58 497.82C613.26 487.72 618.57 477.42 623.99 467.18C631.4 453.21 639.61 439.77 649.14 427.12C665.41 405.54 685.21 388.03 708.91 375.02C715.18 371.58 721.48 368.17 727.93 365.11C734.46 362.02 740.38 358.12 745.8 353.4C746.91 352.43 748.06 351.49 749.28 350.67C750.58 349.8 752.57 350.05 753.23 351.32C753.74 352.31 753.93 353.64 753.76 354.75C753.63 355.62 752.84 356.48 752.15 357.16C748.66 360.62 745.22 364.05 741.08 366.87C731.83 373.18 724.13 381.21 717.85 390.48C714.12 395.98 710.7 401.7 707.63 407.61C701.94 418.54 696.55 429.63 691.17 440.72C682.96 457.65 673.23 473.62 661.51 488.35C651.76 500.61 640.35 511.07 627.39 519.83C620.62 524.42 613.4 528.2 605.65 530.78C597.49 533.5 589.19 535.86 580.92 538.26C578.56 538.94 576.09 539.2 574 539.6ZM-22.44 889.27L1421.01 889.27L1421.01 1031.71L-22.44 1031.71L-22.44 889.27Z" fill="#CEFD3B" fill-opacity="1.000000" fill-rule="nonzero"/>
	</g>
</svg>
