<svg width="184" height="14" viewBox="0 0 184 14" fill="none" xmlns="http://www.w3.org/2000/svg">
<path d="M8.16602 11.6201V13H1.76758V11.6201H8.16602ZM2.10156 0.203125V13H0.405273V0.203125H2.10156ZM12.4277 0.203125V13H10.7314V0.203125H12.4277ZM25.4697 6.62793V11.3125C25.3115 11.5469 25.0596 11.8105 24.7139 12.1035C24.3682 12.3906 23.8906 12.6426 23.2812 12.8594C22.6777 13.0703 21.8984 13.1758 20.9434 13.1758C20.1641 13.1758 19.4463 13.041 18.79 12.7715C18.1396 12.4961 17.5742 12.0977 17.0938 11.5762C16.6191 11.0488 16.25 10.4102 15.9863 9.66016C15.7285 8.9043 15.5996 8.04883 15.5996 7.09375V6.10059C15.5996 5.14551 15.7109 4.29297 15.9336 3.54297C16.1621 2.79297 16.4961 2.15723 16.9355 1.63574C17.375 1.1084 17.9141 0.709961 18.5527 0.44043C19.1914 0.165039 19.9238 0.0273438 20.75 0.0273438C21.7285 0.0273438 22.5459 0.197266 23.2021 0.537109C23.8643 0.871094 24.3799 1.33398 24.749 1.92578C25.124 2.51758 25.3643 3.19141 25.4697 3.94727H23.7734C23.6973 3.48438 23.5449 3.0625 23.3164 2.68164C23.0938 2.30078 22.7744 1.99609 22.3584 1.76758C21.9424 1.5332 21.4062 1.41602 20.75 1.41602C20.1582 1.41602 19.6455 1.52441 19.2119 1.74121C18.7783 1.95801 18.4209 2.26855 18.1396 2.67285C17.8584 3.07715 17.6475 3.56641 17.5068 4.14062C17.3721 4.71484 17.3047 5.3623 17.3047 6.08301V7.09375C17.3047 7.83203 17.3896 8.49121 17.5596 9.07129C17.7354 9.65137 17.9844 10.1465 18.3066 10.5566C18.6289 10.9609 19.0127 11.2686 19.458 11.4795C19.9092 11.6904 20.4072 11.7959 20.9521 11.7959C21.5557 11.7959 22.0449 11.7461 22.4199 11.6465C22.7949 11.541 23.0879 11.418 23.2988 11.2773C23.5098 11.1309 23.6709 10.9932 23.7822 10.8643V7.99902H20.8203V6.62793H25.4697ZM37.1406 5.70508V7.08496H30.2148V5.70508H37.1406ZM30.4785 0.203125V13H28.7822V0.203125H30.4785ZM38.6172 0.203125V13H36.9297V0.203125H38.6172ZM46.5967 0.203125V13H44.9268V0.203125H46.5967ZM50.71 0.203125V1.5918H40.8223V0.203125H50.71ZM59.8398 5.89844L61.7559 4.53613C62.125 4.28418 62.4092 4.03223 62.6084 3.78027C62.8135 3.52246 62.916 3.1709 62.916 2.72559C62.916 2.37988 62.7812 2.06641 62.5117 1.78516C62.2422 1.49805 61.8613 1.35449 61.3691 1.35449C61.0293 1.35449 60.7422 1.43359 60.5078 1.5918C60.2734 1.75 60.0977 1.96094 59.9805 2.22461C59.8633 2.48242 59.8047 2.7666 59.8047 3.07715C59.8047 3.34082 59.8691 3.61328 59.998 3.89453C60.127 4.17578 60.3057 4.46875 60.5342 4.77344C60.7627 5.07812 61.0234 5.40039 61.3164 5.74023L67.3721 13H65.4209L60.4551 7.05859C60.0156 6.54297 59.623 6.07129 59.2773 5.64355C58.9316 5.20996 58.6592 4.79102 58.46 4.38672C58.2666 3.98242 58.1699 3.56348 58.1699 3.12988C58.1699 2.46191 58.3018 1.89941 58.5654 1.44238C58.835 0.979492 59.21 0.62793 59.6904 0.387695C60.1709 0.147461 60.7334 0.0273438 61.3779 0.0273438C62.0049 0.0273438 62.5439 0.15332 62.9951 0.405273C63.4521 0.651367 63.8037 0.979492 64.0498 1.38965C64.2959 1.79395 64.4189 2.23926 64.4189 2.72559C64.4189 3.13574 64.3457 3.50488 64.1992 3.83301C64.0527 4.15527 63.8477 4.45117 63.584 4.7207C63.3262 4.99023 63.0244 5.25391 62.6787 5.51172L60.1387 7.40137C59.7168 7.71191 59.4092 8.00781 59.2158 8.28906C59.0225 8.57031 58.8965 8.81934 58.8379 9.03613C58.7852 9.25293 58.7588 9.42578 58.7588 9.55469C58.7588 9.9707 58.8496 10.3516 59.0312 10.6973C59.2129 11.043 59.4883 11.3213 59.8574 11.5322C60.2324 11.7373 60.7012 11.8398 61.2637 11.8398C61.7559 11.8398 62.2334 11.7285 62.6963 11.5059C63.165 11.2773 63.584 10.9551 63.9531 10.5391C64.3223 10.1172 64.6152 9.61621 64.832 9.03613C65.0547 8.4502 65.166 7.80273 65.166 7.09375H66.625C66.625 7.67383 66.5693 8.22168 66.458 8.7373C66.3467 9.25293 66.1738 9.7334 65.9395 10.1787C65.7109 10.6182 65.418 11.0195 65.0605 11.3828C65.0078 11.4355 64.9668 11.4971 64.9375 11.5674C64.9082 11.6377 64.8672 11.6992 64.8145 11.752C64.375 12.2266 63.833 12.584 63.1885 12.8242C62.5498 13.0586 61.9082 13.1758 61.2637 13.1758C60.4141 13.1758 59.6787 13.0205 59.0576 12.71C58.4424 12.3994 57.9678 11.9717 57.6338 11.4268C57.2998 10.8818 57.1328 10.2578 57.1328 9.55469C57.1328 9.01562 57.2471 8.54102 57.4756 8.13086C57.71 7.7207 58.0293 7.33691 58.4336 6.97949C58.8438 6.62207 59.3125 6.26172 59.8398 5.89844ZM77.8467 13H75.1748L75.1924 11.6201H77.8467C78.7607 11.6201 79.5225 11.4297 80.1318 11.0488C80.7412 10.6621 81.1982 10.123 81.5029 9.43164C81.8135 8.73438 81.9688 7.91992 81.9688 6.98828V6.20605C81.9688 5.47363 81.8809 4.82324 81.7051 4.25488C81.5293 3.68066 81.2715 3.19727 80.9316 2.80469C80.5918 2.40625 80.1758 2.10449 79.6836 1.89941C79.1973 1.69434 78.6377 1.5918 78.0049 1.5918H75.1221V0.203125H78.0049C78.8428 0.203125 79.6074 0.34375 80.2988 0.625C80.9902 0.900391 81.585 1.30176 82.083 1.8291C82.5869 2.35059 82.9736 2.9834 83.2432 3.72754C83.5127 4.46582 83.6475 5.29785 83.6475 6.22363V6.98828C83.6475 7.91406 83.5127 8.74902 83.2432 9.49316C82.9736 10.2314 82.584 10.8613 82.0742 11.3828C81.5703 11.9043 80.9609 12.3057 80.2461 12.5869C79.5371 12.8623 78.7373 13 77.8467 13ZM76.0801 0.203125V13H74.3838V0.203125H76.0801ZM91.2402 1.33691L87.0039 13H85.2725L90.1504 0.203125H91.2666L91.2402 1.33691ZM94.791 13L90.5459 1.33691L90.5195 0.203125H91.6357L96.5312 13H94.791ZM94.5713 8.2627V9.65137H87.3818V8.2627H94.5713ZM98.7451 0.203125H102.981C103.942 0.203125 104.754 0.349609 105.416 0.642578C106.084 0.935547 106.591 1.36914 106.937 1.94336C107.288 2.51172 107.464 3.21191 107.464 4.04395C107.464 4.62988 107.344 5.16602 107.104 5.65234C106.869 6.13281 106.529 6.54297 106.084 6.88281C105.645 7.2168 105.117 7.46582 104.502 7.62988L104.027 7.81445H100.046L100.028 6.43457H103.034C103.644 6.43457 104.15 6.3291 104.555 6.11816C104.959 5.90137 105.264 5.61133 105.469 5.24805C105.674 4.88477 105.776 4.4834 105.776 4.04395C105.776 3.55176 105.68 3.12109 105.486 2.75195C105.293 2.38281 104.988 2.09863 104.572 1.89941C104.162 1.69434 103.632 1.5918 102.981 1.5918H100.441V13H98.7451V0.203125ZM106.225 13L103.113 7.19922L104.88 7.19043L108.035 12.8945V13H106.225ZM112.033 0.203125V13H110.337V0.203125H112.033ZM119.759 0.203125L114.441 6.1709L111.453 9.27344L111.172 7.46289L113.422 4.98438L117.72 0.203125H119.759ZM118.124 13L113.387 6.75977L114.397 5.41504L120.146 13H118.124ZM127.104 0.203125H131.341C132.302 0.203125 133.113 0.349609 133.775 0.642578C134.443 0.935547 134.95 1.36914 135.296 1.94336C135.647 2.51172 135.823 3.21191 135.823 4.04395C135.823 4.62988 135.703 5.16602 135.463 5.65234C135.229 6.13281 134.889 6.54297 134.443 6.88281C134.004 7.2168 133.477 7.46582 132.861 7.62988L132.387 7.81445H128.405L128.388 6.43457H131.394C132.003 6.43457 132.51 6.3291 132.914 6.11816C133.318 5.90137 133.623 5.61133 133.828 5.24805C134.033 4.88477 134.136 4.4834 134.136 4.04395C134.136 3.55176 134.039 3.12109 133.846 2.75195C133.652 2.38281 133.348 2.09863 132.932 1.89941C132.521 1.69434 131.991 1.5918 131.341 1.5918H128.801V13H127.104V0.203125ZM134.584 13L131.473 7.19922L133.239 7.19043L136.395 12.8945V13H134.584ZM148.549 6.19727V7.00586C148.549 7.9668 148.429 8.82812 148.188 9.58984C147.948 10.3516 147.603 10.999 147.151 11.5322C146.7 12.0654 146.158 12.4727 145.525 12.7539C144.898 13.0352 144.195 13.1758 143.416 13.1758C142.66 13.1758 141.966 13.0352 141.333 12.7539C140.706 12.4727 140.161 12.0654 139.698 11.5322C139.241 10.999 138.887 10.3516 138.635 9.58984C138.383 8.82812 138.257 7.9668 138.257 7.00586V6.19727C138.257 5.23633 138.38 4.37793 138.626 3.62207C138.878 2.86035 139.232 2.21289 139.689 1.67969C140.146 1.14062 140.688 0.730469 141.315 0.449219C141.948 0.167969 142.643 0.0273438 143.398 0.0273438C144.178 0.0273438 144.881 0.167969 145.508 0.449219C146.141 0.730469 146.683 1.14062 147.134 1.67969C147.591 2.21289 147.939 2.86035 148.18 3.62207C148.426 4.37793 148.549 5.23633 148.549 6.19727ZM146.87 7.00586V6.17969C146.87 5.41797 146.791 4.74414 146.633 4.1582C146.48 3.57227 146.255 3.08008 145.956 2.68164C145.657 2.2832 145.291 1.98145 144.857 1.77637C144.43 1.57129 143.943 1.46875 143.398 1.46875C142.871 1.46875 142.394 1.57129 141.966 1.77637C141.544 1.98145 141.181 2.2832 140.876 2.68164C140.577 3.08008 140.346 3.57227 140.182 4.1582C140.018 4.74414 139.936 5.41797 139.936 6.17969V7.00586C139.936 7.77344 140.018 8.45312 140.182 9.04492C140.346 9.63086 140.58 10.126 140.885 10.5303C141.195 10.9287 141.562 11.2305 141.983 11.4355C142.411 11.6406 142.889 11.7432 143.416 11.7432C143.967 11.7432 144.456 11.6406 144.884 11.4355C145.312 11.2305 145.672 10.9287 145.965 10.5303C146.264 10.126 146.489 9.63086 146.642 9.04492C146.794 8.45312 146.87 7.77344 146.87 7.00586ZM156.133 1.33691L151.896 13H150.165L155.043 0.203125H156.159L156.133 1.33691ZM159.684 13L155.438 1.33691L155.412 0.203125H156.528L161.424 13H159.684ZM159.464 8.2627V9.65137H152.274V8.2627H159.464ZM170.458 9.76562C170.458 9.4668 170.411 9.20312 170.317 8.97461C170.229 8.74023 170.071 8.5293 169.843 8.3418C169.62 8.1543 169.31 7.97559 168.911 7.80566C168.519 7.63574 168.021 7.46289 167.417 7.28711C166.784 7.09961 166.213 6.8916 165.703 6.66309C165.193 6.42871 164.757 6.16211 164.394 5.86328C164.03 5.56445 163.752 5.22168 163.559 4.83496C163.365 4.44824 163.269 4.00586 163.269 3.50781C163.269 3.00977 163.371 2.5498 163.576 2.12793C163.781 1.70605 164.074 1.33984 164.455 1.0293C164.842 0.712891 165.302 0.466797 165.835 0.291016C166.368 0.115234 166.963 0.0273438 167.619 0.0273438C168.58 0.0273438 169.395 0.211914 170.062 0.581055C170.736 0.944336 171.249 1.42188 171.601 2.01367C171.952 2.59961 172.128 3.22656 172.128 3.89453H170.44C170.44 3.41406 170.338 2.98926 170.133 2.62012C169.928 2.24512 169.617 1.95215 169.201 1.74121C168.785 1.52441 168.258 1.41602 167.619 1.41602C167.016 1.41602 166.518 1.50684 166.125 1.68848C165.732 1.87012 165.439 2.11621 165.246 2.42676C165.059 2.7373 164.965 3.0918 164.965 3.49023C164.965 3.75977 165.021 4.00586 165.132 4.22852C165.249 4.44531 165.428 4.64746 165.668 4.83496C165.914 5.02246 166.225 5.19531 166.6 5.35352C166.98 5.51172 167.435 5.66406 167.962 5.81055C168.688 6.01562 169.315 6.24414 169.843 6.49609C170.37 6.74805 170.804 7.03223 171.144 7.34863C171.489 7.65918 171.744 8.01367 171.908 8.41211C172.078 8.80469 172.163 9.25 172.163 9.74805C172.163 10.2695 172.058 10.7412 171.847 11.1631C171.636 11.585 171.334 11.9453 170.941 12.2441C170.549 12.543 170.077 12.7744 169.526 12.9385C168.981 13.0967 168.372 13.1758 167.698 13.1758C167.106 13.1758 166.523 13.0938 165.949 12.9297C165.381 12.7656 164.862 12.5195 164.394 12.1914C163.931 11.8633 163.559 11.459 163.277 10.9785C163.002 10.4922 162.864 9.92969 162.864 9.29102H164.552C164.552 9.73047 164.637 10.1084 164.807 10.4248C164.977 10.7354 165.208 10.9932 165.501 11.1982C165.8 11.4033 166.137 11.5557 166.512 11.6553C166.893 11.749 167.288 11.7959 167.698 11.7959C168.29 11.7959 168.791 11.7139 169.201 11.5498C169.611 11.3857 169.922 11.1514 170.133 10.8467C170.35 10.542 170.458 10.1816 170.458 9.76562ZM179.554 0.203125V13H177.884V0.203125H179.554ZM183.667 0.203125V1.5918H173.779V0.203125H183.667Z" fill="black"/>
</svg>
