<svg width="308" height="25" viewBox="0 0 308 25" fill="none" xmlns="http://www.w3.org/2000/svg">
<path d="M14.7031 21.5469V24H3.32812V21.5469H14.7031ZM3.92188 1.25V24H0.90625V1.25H3.92188ZM21.8906 1.25V24H18.875V1.25H21.8906ZM44.6875 12.6719V21C44.4062 21.4167 43.9583 21.8854 43.3438 22.4062C42.7292 22.9167 41.8802 23.3646 40.7969 23.75C39.724 24.125 38.3385 24.3125 36.6406 24.3125C35.2552 24.3125 33.9792 24.0729 32.8125 23.5938C31.6562 23.1042 30.651 22.3958 29.7969 21.4688C28.9531 20.5312 28.2969 19.3958 27.8281 18.0625C27.3698 16.7188 27.1406 15.1979 27.1406 13.5V11.7344C27.1406 10.0365 27.3385 8.52083 27.7344 7.1875C28.1406 5.85417 28.7344 4.72396 29.5156 3.79688C30.2969 2.85938 31.2552 2.15104 32.3906 1.67188C33.526 1.18229 34.8281 0.9375 36.2969 0.9375C38.0365 0.9375 39.4896 1.23958 40.6562 1.84375C41.8333 2.4375 42.75 3.26042 43.4062 4.3125C44.0729 5.36458 44.5 6.5625 44.6875 7.90625H41.6719C41.5365 7.08333 41.2656 6.33333 40.8594 5.65625C40.4635 4.97917 39.8958 4.4375 39.1562 4.03125C38.4167 3.61458 37.4635 3.40625 36.2969 3.40625C35.2448 3.40625 34.3333 3.59896 33.5625 3.98438C32.7917 4.36979 32.1562 4.92188 31.6562 5.64062C31.1562 6.35938 30.7812 7.22917 30.5312 8.25C30.2917 9.27083 30.1719 10.4219 30.1719 11.7031V13.5C30.1719 14.8125 30.3229 15.9844 30.625 17.0156C30.9375 18.0469 31.3802 18.9271 31.9531 19.6562C32.526 20.375 33.2083 20.9219 34 21.2969C34.8021 21.6719 35.6875 21.8594 36.6562 21.8594C37.7292 21.8594 38.599 21.7708 39.2656 21.5938C39.9323 21.4062 40.4531 21.1875 40.8281 20.9375C41.2031 20.6771 41.4896 20.4323 41.6875 20.2031V15.1094H36.4219V12.6719H44.6875ZM65.0469 11.0312V13.4844H52.7344V11.0312H65.0469ZM53.2031 1.25V24H50.1875V1.25H53.2031ZM67.6719 1.25V24H64.6719V1.25H67.6719ZM81.4688 1.25V24H78.5V1.25H81.4688ZM88.7812 1.25V3.71875H71.2031V1.25H88.7812ZM100.469 1.25H108C109.708 1.25 111.151 1.51042 112.328 2.03125C113.516 2.55208 114.417 3.32292 115.031 4.34375C115.656 5.35417 115.969 6.59896 115.969 8.07812C115.969 9.11979 115.755 10.0729 115.328 10.9375C114.911 11.7917 114.307 12.5208 113.516 13.125C112.734 13.7188 111.797 14.1615 110.703 14.4531L109.859 14.7812H102.781L102.75 12.3281H108.094C109.177 12.3281 110.078 12.1406 110.797 11.7656C111.516 11.3802 112.057 10.8646 112.422 10.2188C112.786 9.57292 112.969 8.85938 112.969 8.07812C112.969 7.20312 112.797 6.4375 112.453 5.78125C112.109 5.125 111.568 4.61979 110.828 4.26562C110.099 3.90104 109.156 3.71875 108 3.71875H103.484V24H100.469V1.25ZM113.766 24L108.234 13.6875L111.375 13.6719L116.984 23.8125V24H113.766ZM138.203 11.9062V13.3438C138.203 15.0521 137.99 16.5833 137.562 17.9375C137.135 19.2917 136.521 20.4427 135.719 21.3906C134.917 22.3385 133.953 23.0625 132.828 23.5625C131.714 24.0625 130.464 24.3125 129.078 24.3125C127.734 24.3125 126.5 24.0625 125.375 23.5625C124.26 23.0625 123.292 22.3385 122.469 21.3906C121.656 20.4427 121.026 19.2917 120.578 17.9375C120.13 16.5833 119.906 15.0521 119.906 13.3438V11.9062C119.906 10.1979 120.125 8.67188 120.562 7.32812C121.01 5.97396 121.641 4.82292 122.453 3.875C123.266 2.91667 124.229 2.1875 125.344 1.6875C126.469 1.1875 127.703 0.9375 129.047 0.9375C130.432 0.9375 131.682 1.1875 132.797 1.6875C133.922 2.1875 134.885 2.91667 135.688 3.875C136.5 4.82292 137.12 5.97396 137.547 7.32812C137.984 8.67188 138.203 10.1979 138.203 11.9062ZM135.219 13.3438V11.875C135.219 10.5208 135.078 9.32292 134.797 8.28125C134.526 7.23958 134.125 6.36458 133.594 5.65625C133.062 4.94792 132.411 4.41146 131.641 4.04688C130.88 3.68229 130.016 3.5 129.047 3.5C128.109 3.5 127.26 3.68229 126.5 4.04688C125.75 4.41146 125.104 4.94792 124.562 5.65625C124.031 6.36458 123.62 7.23958 123.328 8.28125C123.036 9.32292 122.891 10.5208 122.891 11.875V13.3438C122.891 14.7083 123.036 15.9167 123.328 16.9688C123.62 18.0104 124.036 18.8906 124.578 19.6094C125.13 20.3177 125.781 20.8542 126.531 21.2188C127.292 21.5833 128.141 21.7656 129.078 21.7656C130.057 21.7656 130.927 21.5833 131.688 21.2188C132.448 20.8542 133.089 20.3177 133.609 19.6094C134.141 18.8906 134.542 18.0104 134.812 16.9688C135.083 15.9167 135.219 14.7083 135.219 13.3438ZM151.297 3.26562L143.766 24H140.688L149.359 1.25H151.344L151.297 3.26562ZM157.609 24L150.062 3.26562L150.016 1.25H152L160.703 24H157.609ZM157.219 15.5781V18.0469H144.438V15.5781H157.219ZM176.375 18.25C176.375 17.7188 176.292 17.25 176.125 16.8438C175.969 16.4271 175.688 16.0521 175.281 15.7188C174.885 15.3854 174.333 15.0677 173.625 14.7656C172.927 14.4635 172.042 14.1562 170.969 13.8438C169.844 13.5104 168.828 13.1406 167.922 12.7344C167.016 12.3177 166.24 11.8438 165.594 11.3125C164.948 10.7812 164.453 10.1719 164.109 9.48438C163.766 8.79688 163.594 8.01042 163.594 7.125C163.594 6.23958 163.776 5.42188 164.141 4.67188C164.505 3.92188 165.026 3.27083 165.703 2.71875C166.391 2.15625 167.208 1.71875 168.156 1.40625C169.104 1.09375 170.161 0.9375 171.328 0.9375C173.036 0.9375 174.484 1.26562 175.672 1.92188C176.87 2.56771 177.781 3.41667 178.406 4.46875C179.031 5.51042 179.344 6.625 179.344 7.8125H176.344C176.344 6.95833 176.161 6.20312 175.797 5.54688C175.432 4.88021 174.88 4.35938 174.141 3.98438C173.401 3.59896 172.464 3.40625 171.328 3.40625C170.255 3.40625 169.37 3.56771 168.672 3.89062C167.974 4.21354 167.453 4.65104 167.109 5.20312C166.776 5.75521 166.609 6.38542 166.609 7.09375C166.609 7.57292 166.708 8.01042 166.906 8.40625C167.115 8.79167 167.432 9.15104 167.859 9.48438C168.297 9.81771 168.849 10.125 169.516 10.4062C170.193 10.6875 171 10.9583 171.938 11.2188C173.229 11.5833 174.344 11.9896 175.281 12.4375C176.219 12.8854 176.99 13.3906 177.594 13.9531C178.208 14.5052 178.661 15.1354 178.953 15.8438C179.255 16.5417 179.406 17.3333 179.406 18.2188C179.406 19.1458 179.219 19.9844 178.844 20.7344C178.469 21.4844 177.932 22.125 177.234 22.6562C176.536 23.1875 175.698 23.599 174.719 23.8906C173.75 24.1719 172.667 24.3125 171.469 24.3125C170.417 24.3125 169.38 24.1667 168.359 23.875C167.349 23.5833 166.427 23.1458 165.594 22.5625C164.771 21.9792 164.109 21.2604 163.609 20.4062C163.12 19.5417 162.875 18.5417 162.875 17.4062H165.875C165.875 18.1875 166.026 18.8594 166.328 19.4219C166.63 19.974 167.042 20.4323 167.562 20.7969C168.094 21.1615 168.693 21.4323 169.359 21.6094C170.036 21.776 170.74 21.8594 171.469 21.8594C172.521 21.8594 173.411 21.7135 174.141 21.4219C174.87 21.1302 175.422 20.7135 175.797 20.1719C176.182 19.6302 176.375 18.9896 176.375 18.25ZM192.156 1.25V24H189.188V1.25H192.156ZM199.469 1.25V3.71875H181.891V1.25H199.469ZM219.266 13.3594H213.5L213.469 10.9375H218.703C219.568 10.9375 220.323 10.7917 220.969 10.5C221.615 10.2083 222.115 9.79167 222.469 9.25C222.833 8.69792 223.016 8.04167 223.016 7.28125C223.016 6.44792 222.854 5.77083 222.531 5.25C222.219 4.71875 221.734 4.33333 221.078 4.09375C220.432 3.84375 219.609 3.71875 218.609 3.71875H214.172V24H211.156V1.25H218.609C219.776 1.25 220.818 1.36979 221.734 1.60938C222.651 1.83854 223.427 2.20312 224.062 2.70312C224.708 3.19271 225.198 3.81771 225.531 4.57812C225.865 5.33854 226.031 6.25 226.031 7.3125C226.031 8.25 225.792 9.09896 225.312 9.85938C224.833 10.6094 224.167 11.224 223.312 11.7031C222.469 12.1823 221.479 12.4896 220.344 12.625L219.266 13.3594ZM219.125 24H212.312L214.016 21.5469H219.125C220.083 21.5469 220.896 21.3802 221.562 21.0469C222.24 20.7135 222.755 20.2448 223.109 19.6406C223.464 19.026 223.641 18.3021 223.641 17.4688C223.641 16.625 223.49 15.8958 223.188 15.2812C222.885 14.6667 222.411 14.1927 221.766 13.8594C221.12 13.526 220.286 13.3594 219.266 13.3594H214.969L215 10.9375H220.875L221.516 11.8125C222.609 11.9062 223.536 12.2188 224.297 12.75C225.057 13.2708 225.635 13.9375 226.031 14.75C226.438 15.5625 226.641 16.4583 226.641 17.4375C226.641 18.8542 226.328 20.0521 225.703 21.0312C225.089 22 224.219 22.7396 223.094 23.25C221.969 23.75 220.646 24 219.125 24ZM245.391 21.5469V24H234.016V21.5469H245.391ZM234.609 1.25V24H231.594V1.25H234.609ZM263.797 21.5469V24H251.75V21.5469H263.797ZM252.359 1.25V24H249.344V1.25H252.359ZM262.203 11.0312V13.4844H251.75V11.0312H262.203ZM263.641 1.25V3.71875H251.75V1.25H263.641ZM285.531 1.25V24H282.5L271.047 6.45312V24H268.031V1.25H271.047L282.547 18.8438V1.25H285.531ZM297.531 24H292.781L292.812 21.5469H297.531C299.156 21.5469 300.51 21.2083 301.594 20.5312C302.677 19.8438 303.49 18.8854 304.031 17.6562C304.583 16.4167 304.859 14.9688 304.859 13.3125V11.9219C304.859 10.6198 304.703 9.46354 304.391 8.45312C304.078 7.43229 303.62 6.57292 303.016 5.875C302.411 5.16667 301.672 4.63021 300.797 4.26562C299.932 3.90104 298.938 3.71875 297.812 3.71875H292.688V1.25H297.812C299.302 1.25 300.661 1.5 301.891 2C303.12 2.48958 304.177 3.20312 305.062 4.14062C305.958 5.06771 306.646 6.19271 307.125 7.51562C307.604 8.82812 307.844 10.3073 307.844 11.9531V13.3125C307.844 14.9583 307.604 16.4427 307.125 17.7656C306.646 19.0781 305.953 20.1979 305.047 21.125C304.151 22.0521 303.068 22.7656 301.797 23.2656C300.536 23.7552 299.115 24 297.531 24ZM294.391 1.25V24H291.375V1.25H294.391Z" fill="black"/>
</svg>
