<svg width="170" height="14" viewBox="0 0 170 14" fill="none" xmlns="http://www.w3.org/2000/svg">
<path d="M6.03418 0.203125V13H4.36426V0.203125H6.03418ZM10.1475 0.203125V1.5918H0.259766V0.203125H10.1475ZM16.5801 1.33691L12.3438 13H10.6123L15.4902 0.203125H16.6064L16.5801 1.33691ZM20.1309 13L15.8857 1.33691L15.8594 0.203125H16.9756L21.8711 13H20.1309ZM19.9111 8.2627V9.65137H12.7217V8.2627H19.9111ZM33.9287 0.203125V13H32.2236L25.7812 3.12988V13H24.085V0.203125H25.7812L32.25 10.0996V0.203125H33.9287ZM46.8916 6.62793V11.3125C46.7334 11.5469 46.4814 11.8105 46.1357 12.1035C45.79 12.3906 45.3125 12.6426 44.7031 12.8594C44.0996 13.0703 43.3203 13.1758 42.3652 13.1758C41.5859 13.1758 40.8682 13.041 40.2119 12.7715C39.5615 12.4961 38.9961 12.0977 38.5156 11.5762C38.041 11.0488 37.6719 10.4102 37.4082 9.66016C37.1504 8.9043 37.0215 8.04883 37.0215 7.09375V6.10059C37.0215 5.14551 37.1328 4.29297 37.3555 3.54297C37.584 2.79297 37.918 2.15723 38.3574 1.63574C38.7969 1.1084 39.3359 0.709961 39.9746 0.44043C40.6133 0.165039 41.3457 0.0273438 42.1719 0.0273438C43.1504 0.0273438 43.9678 0.197266 44.624 0.537109C45.2861 0.871094 45.8018 1.33398 46.1709 1.92578C46.5459 2.51758 46.7861 3.19141 46.8916 3.94727H45.1953C45.1191 3.48438 44.9668 3.0625 44.7383 2.68164C44.5156 2.30078 44.1963 1.99609 43.7803 1.76758C43.3643 1.5332 42.8281 1.41602 42.1719 1.41602C41.5801 1.41602 41.0674 1.52441 40.6338 1.74121C40.2002 1.95801 39.8428 2.26855 39.5615 2.67285C39.2803 3.07715 39.0693 3.56641 38.9287 4.14062C38.7939 4.71484 38.7266 5.3623 38.7266 6.08301V7.09375C38.7266 7.83203 38.8115 8.49121 38.9814 9.07129C39.1572 9.65137 39.4062 10.1465 39.7285 10.5566C40.0508 10.9609 40.4346 11.2686 40.8799 11.4795C41.3311 11.6904 41.8291 11.7959 42.374 11.7959C42.9775 11.7959 43.4668 11.7461 43.8418 11.6465C44.2168 11.541 44.5098 11.418 44.7207 11.2773C44.9316 11.1309 45.0928 10.9932 45.2041 10.8643V7.99902H42.2422V6.62793H46.8916ZM50.793 0.203125L54.1152 6.62793L57.4463 0.203125H59.3711L54.959 8.21875V13H53.2627V8.21875L48.8506 0.203125H50.793ZM71.2168 1.33691L66.9805 13H65.249L70.127 0.203125H71.2432L71.2168 1.33691ZM74.7676 13L70.5225 1.33691L70.4961 0.203125H71.6123L76.5078 13H74.7676ZM74.5479 8.2627V9.65137H67.3584V8.2627H74.5479ZM88.5654 0.203125V13H86.8604L80.418 3.12988V13H78.7217V0.203125H80.418L86.8867 10.0996V0.203125H88.5654ZM95.5342 13H92.8623L92.8799 11.6201H95.5342C96.4482 11.6201 97.21 11.4297 97.8193 11.0488C98.4287 10.6621 98.8857 10.123 99.1904 9.43164C99.501 8.73438 99.6562 7.91992 99.6562 6.98828V6.20605C99.6562 5.47363 99.5684 4.82324 99.3926 4.25488C99.2168 3.68066 98.959 3.19727 98.6191 2.80469C98.2793 2.40625 97.8633 2.10449 97.3711 1.89941C96.8848 1.69434 96.3252 1.5918 95.6924 1.5918H92.8096V0.203125H95.6924C96.5303 0.203125 97.2949 0.34375 97.9863 0.625C98.6777 0.900391 99.2725 1.30176 99.7705 1.8291C100.274 2.35059 100.661 2.9834 100.931 3.72754C101.2 4.46582 101.335 5.29785 101.335 6.22363V6.98828C101.335 7.91406 101.2 8.74902 100.931 9.49316C100.661 10.2314 100.271 10.8613 99.7617 11.3828C99.2578 11.9043 98.6484 12.3057 97.9336 12.5869C97.2246 12.8623 96.4248 13 95.5342 13ZM93.7676 0.203125V13H92.0713V0.203125H93.7676ZM113.726 0.203125V13H112.056V0.203125H113.726ZM117.839 0.203125V1.5918H107.951V0.203125H117.839ZM122.057 0.203125V13H120.36V0.203125H122.057ZM135.485 0.203125V13H133.78L127.338 3.12988V13H125.642V0.203125H127.338L133.807 10.0996V0.203125H135.485ZM148.448 6.62793V11.3125C148.29 11.5469 148.038 11.8105 147.692 12.1035C147.347 12.3906 146.869 12.6426 146.26 12.8594C145.656 13.0703 144.877 13.1758 143.922 13.1758C143.143 13.1758 142.425 13.041 141.769 12.7715C141.118 12.4961 140.553 12.0977 140.072 11.5762C139.598 11.0488 139.229 10.4102 138.965 9.66016C138.707 8.9043 138.578 8.04883 138.578 7.09375V6.10059C138.578 5.14551 138.689 4.29297 138.912 3.54297C139.141 2.79297 139.475 2.15723 139.914 1.63574C140.354 1.1084 140.893 0.709961 141.531 0.44043C142.17 0.165039 142.902 0.0273438 143.729 0.0273438C144.707 0.0273438 145.524 0.197266 146.181 0.537109C146.843 0.871094 147.358 1.33398 147.728 1.92578C148.103 2.51758 148.343 3.19141 148.448 3.94727H146.752C146.676 3.48438 146.523 3.0625 146.295 2.68164C146.072 2.30078 145.753 1.99609 145.337 1.76758C144.921 1.5332 144.385 1.41602 143.729 1.41602C143.137 1.41602 142.624 1.52441 142.19 1.74121C141.757 1.95801 141.399 2.26855 141.118 2.67285C140.837 3.07715 140.626 3.56641 140.485 4.14062C140.351 4.71484 140.283 5.3623 140.283 6.08301V7.09375C140.283 7.83203 140.368 8.49121 140.538 9.07129C140.714 9.65137 140.963 10.1465 141.285 10.5566C141.607 10.9609 141.991 11.2686 142.437 11.4795C142.888 11.6904 143.386 11.7959 143.931 11.7959C144.534 11.7959 145.023 11.7461 145.398 11.6465C145.773 11.541 146.066 11.418 146.277 11.2773C146.488 11.1309 146.649 10.9932 146.761 10.8643V7.99902H143.799V6.62793H148.448ZM159.521 11.6201V13H153.123V11.6201H159.521ZM153.457 0.203125V13H151.761V0.203125H153.457ZM160.443 0.203125L163.766 6.62793L167.097 0.203125H169.021L164.609 8.21875V13H162.913V8.21875L158.501 0.203125H160.443Z" fill="black"/>
</svg>
