<svg width="324" height="25" viewBox="0 0 324 25" fill="none" xmlns="http://www.w3.org/2000/svg">
<path d="M14.2656 1.25H17.2656V16.6406C17.2656 18.349 16.8854 19.7708 16.125 20.9062C15.3646 22.0417 14.3542 22.8958 13.0938 23.4688C11.8438 24.0312 10.4844 24.3125 9.01562 24.3125C7.47396 24.3125 6.07812 24.0312 4.82812 23.4688C3.58854 22.8958 2.60417 22.0417 1.875 20.9062C1.15625 19.7708 0.796875 18.349 0.796875 16.6406V1.25H3.78125V16.6406C3.78125 17.8281 4 18.8073 4.4375 19.5781C4.875 20.349 5.48438 20.9219 6.26562 21.2969C7.05729 21.6719 7.97396 21.8594 9.01562 21.8594C10.0677 21.8594 10.9844 21.6719 11.7656 21.2969C12.5573 20.9219 13.1719 20.349 13.6094 19.5781C14.0469 18.8073 14.2656 17.8281 14.2656 16.6406V1.25ZM32.0469 17.3594V1.25H35.0469V17.3594C35.0469 18.8594 34.7396 20.125 34.125 21.1562C33.5104 22.1875 32.6615 22.974 31.5781 23.5156C30.5052 24.0469 29.2708 24.3125 27.875 24.3125C26.4792 24.3125 25.2396 24.0729 24.1562 23.5938C23.0729 23.1146 22.224 22.3854 21.6094 21.4062C20.9948 20.4271 20.6875 19.1927 20.6875 17.7031H23.7031C23.7031 18.6615 23.8802 19.4479 24.2344 20.0625C24.5885 20.6771 25.0781 21.1302 25.7031 21.4219C26.3385 21.7135 27.0625 21.8594 27.875 21.8594C28.6667 21.8594 29.375 21.6927 30 21.3594C30.6354 21.0156 31.1354 20.5104 31.5 19.8438C31.8646 19.1667 32.0469 18.3385 32.0469 17.3594ZM50.2031 17.3594V1.25H53.2031V17.3594C53.2031 18.8594 52.8958 20.125 52.2812 21.1562C51.6667 22.1875 50.8177 22.974 49.7344 23.5156C48.6615 24.0469 47.4271 24.3125 46.0312 24.3125C44.6354 24.3125 43.3958 24.0729 42.3125 23.5938C41.2292 23.1146 40.3802 22.3854 39.7656 21.4062C39.151 20.4271 38.8438 19.1927 38.8438 17.7031H41.8594C41.8594 18.6615 42.0365 19.4479 42.3906 20.0625C42.7448 20.6771 43.2344 21.1302 43.8594 21.4219C44.4948 21.7135 45.2188 21.8594 46.0312 21.8594C46.8229 21.8594 47.5312 21.6927 48.1562 21.3594C48.7917 21.0156 49.2917 20.5104 49.6562 19.8438C50.0208 19.1667 50.2031 18.3385 50.2031 17.3594ZM76.3281 11.9062V13.3438C76.3281 15.0521 76.1146 16.5833 75.6875 17.9375C75.2604 19.2917 74.6458 20.4427 73.8438 21.3906C73.0417 22.3385 72.0781 23.0625 70.9531 23.5625C69.8385 24.0625 68.5885 24.3125 67.2031 24.3125C65.8594 24.3125 64.625 24.0625 63.5 23.5625C62.3854 23.0625 61.4167 22.3385 60.5938 21.3906C59.7812 20.4427 59.151 19.2917 58.7031 17.9375C58.2552 16.5833 58.0312 15.0521 58.0312 13.3438V11.9062C58.0312 10.1979 58.25 8.67188 58.6875 7.32812C59.1354 5.97396 59.7656 4.82292 60.5781 3.875C61.3906 2.91667 62.3542 2.1875 63.4688 1.6875C64.5938 1.1875 65.8281 0.9375 67.1719 0.9375C68.5573 0.9375 69.8073 1.1875 70.9219 1.6875C72.0469 2.1875 73.0104 2.91667 73.8125 3.875C74.625 4.82292 75.2448 5.97396 75.6719 7.32812C76.1094 8.67188 76.3281 10.1979 76.3281 11.9062ZM73.3438 13.3438V11.875C73.3438 10.5208 73.2031 9.32292 72.9219 8.28125C72.651 7.23958 72.25 6.36458 71.7188 5.65625C71.1875 4.94792 70.5365 4.41146 69.7656 4.04688C69.0052 3.68229 68.1406 3.5 67.1719 3.5C66.2344 3.5 65.3854 3.68229 64.625 4.04688C63.875 4.41146 63.2292 4.94792 62.6875 5.65625C62.1562 6.36458 61.7448 7.23958 61.4531 8.28125C61.1615 9.32292 61.0156 10.5208 61.0156 11.875V13.3438C61.0156 14.7083 61.1615 15.9167 61.4531 16.9688C61.7448 18.0104 62.1615 18.8906 62.7031 19.6094C63.2552 20.3177 63.9062 20.8542 64.6562 21.2188C65.4167 21.5833 66.2656 21.7656 67.2031 21.7656C68.1823 21.7656 69.0521 21.5833 69.8125 21.2188C70.5729 20.8542 71.2135 20.3177 71.7344 19.6094C72.2656 18.8906 72.6667 18.0104 72.9375 16.9688C73.2083 15.9167 73.3438 14.7083 73.3438 13.3438ZM101.906 18.25C101.906 17.7188 101.823 17.25 101.656 16.8438C101.5 16.4271 101.219 16.0521 100.812 15.7188C100.417 15.3854 99.8646 15.0677 99.1562 14.7656C98.4583 14.4635 97.5729 14.1562 96.5 13.8438C95.375 13.5104 94.3594 13.1406 93.4531 12.7344C92.5469 12.3177 91.7708 11.8438 91.125 11.3125C90.4792 10.7812 89.9844 10.1719 89.6406 9.48438C89.2969 8.79688 89.125 8.01042 89.125 7.125C89.125 6.23958 89.3073 5.42188 89.6719 4.67188C90.0365 3.92188 90.5573 3.27083 91.2344 2.71875C91.9219 2.15625 92.7396 1.71875 93.6875 1.40625C94.6354 1.09375 95.6927 0.9375 96.8594 0.9375C98.5677 0.9375 100.016 1.26562 101.203 1.92188C102.401 2.56771 103.312 3.41667 103.938 4.46875C104.562 5.51042 104.875 6.625 104.875 7.8125H101.875C101.875 6.95833 101.693 6.20312 101.328 5.54688C100.964 4.88021 100.411 4.35938 99.6719 3.98438C98.9323 3.59896 97.9948 3.40625 96.8594 3.40625C95.7865 3.40625 94.901 3.56771 94.2031 3.89062C93.5052 4.21354 92.9844 4.65104 92.6406 5.20312C92.3073 5.75521 92.1406 6.38542 92.1406 7.09375C92.1406 7.57292 92.2396 8.01042 92.4375 8.40625C92.6458 8.79167 92.9635 9.15104 93.3906 9.48438C93.8281 9.81771 94.3802 10.125 95.0469 10.4062C95.724 10.6875 96.5312 10.9583 97.4688 11.2188C98.7604 11.5833 99.875 11.9896 100.812 12.4375C101.75 12.8854 102.521 13.3906 103.125 13.9531C103.74 14.5052 104.193 15.1354 104.484 15.8438C104.786 16.5417 104.938 17.3333 104.938 18.2188C104.938 19.1458 104.75 19.9844 104.375 20.7344C104 21.4844 103.464 22.125 102.766 22.6562C102.068 23.1875 101.229 23.599 100.25 23.8906C99.2812 24.1719 98.1979 24.3125 97 24.3125C95.9479 24.3125 94.9115 24.1667 93.8906 23.875C92.8802 23.5833 91.9583 23.1458 91.125 22.5625C90.3021 21.9792 89.6406 21.2604 89.1406 20.4062C88.651 19.5417 88.4062 18.5417 88.4062 17.4062H91.4062C91.4062 18.1875 91.5573 18.8594 91.8594 19.4219C92.1615 19.974 92.5729 20.4323 93.0938 20.7969C93.625 21.1615 94.224 21.4323 94.8906 21.6094C95.5677 21.776 96.2708 21.8594 97 21.8594C98.0521 21.8594 98.9427 21.7135 99.6719 21.4219C100.401 21.1302 100.953 20.7135 101.328 20.1719C101.714 19.6302 101.906 18.9896 101.906 18.25ZM117.703 3.26562L110.172 24H107.094L115.766 1.25H117.75L117.703 3.26562ZM124.016 24L116.469 3.26562L116.422 1.25H118.406L127.109 24H124.016ZM123.625 15.5781V18.0469H110.844V15.5781H123.625ZM131.609 1.25H134.531L141.984 19.7969L149.422 1.25H152.359L143.109 24H140.828L131.609 1.25ZM130.656 1.25H133.234L133.656 15.125V24H130.656V1.25ZM150.719 1.25H153.297V24H150.297V15.125L150.719 1.25ZM167.484 15.0781H161.406V12.625H167.484C168.661 12.625 169.615 12.4375 170.344 12.0625C171.073 11.6875 171.604 11.1667 171.938 10.5C172.281 9.83333 172.453 9.07292 172.453 8.21875C172.453 7.4375 172.281 6.70312 171.938 6.01562C171.604 5.32812 171.073 4.77604 170.344 4.35938C169.615 3.93229 168.661 3.71875 167.484 3.71875H162.109V24H159.094V1.25H167.484C169.203 1.25 170.656 1.54688 171.844 2.14062C173.031 2.73438 173.932 3.55729 174.547 4.60938C175.161 5.65104 175.469 6.84375 175.469 8.1875C175.469 9.64583 175.161 10.8906 174.547 11.9219C173.932 12.9531 173.031 13.7396 171.844 14.2812C170.656 14.8125 169.203 15.0781 167.484 15.0781ZM193.578 21.5469V24H182.203V21.5469H193.578ZM182.797 1.25V24H179.781V1.25H182.797ZM211.984 21.5469V24H199.938V21.5469H211.984ZM200.547 1.25V24H197.531V1.25H200.547ZM210.391 11.0312V13.4844H199.938V11.0312H210.391ZM211.828 1.25V3.71875H199.938V1.25H211.828ZM216.219 1.25H223.75C225.458 1.25 226.901 1.51042 228.078 2.03125C229.266 2.55208 230.167 3.32292 230.781 4.34375C231.406 5.35417 231.719 6.59896 231.719 8.07812C231.719 9.11979 231.505 10.0729 231.078 10.9375C230.661 11.7917 230.057 12.5208 229.266 13.125C228.484 13.7188 227.547 14.1615 226.453 14.4531L225.609 14.7812H218.531L218.5 12.3281H223.844C224.927 12.3281 225.828 12.1406 226.547 11.7656C227.266 11.3802 227.807 10.8646 228.172 10.2188C228.536 9.57292 228.719 8.85938 228.719 8.07812C228.719 7.20312 228.547 6.4375 228.203 5.78125C227.859 5.125 227.318 4.61979 226.578 4.26562C225.849 3.90104 224.906 3.71875 223.75 3.71875H219.234V24H216.219V1.25ZM229.516 24L223.984 13.6875L227.125 13.6719L232.734 23.8125V24H229.516ZM253.266 15.0781H247.188V12.625H253.266C254.443 12.625 255.396 12.4375 256.125 12.0625C256.854 11.6875 257.385 11.1667 257.719 10.5C258.062 9.83333 258.234 9.07292 258.234 8.21875C258.234 7.4375 258.062 6.70312 257.719 6.01562C257.385 5.32812 256.854 4.77604 256.125 4.35938C255.396 3.93229 254.443 3.71875 253.266 3.71875H247.891V24H244.875V1.25H253.266C254.984 1.25 256.438 1.54688 257.625 2.14062C258.812 2.73438 259.714 3.55729 260.328 4.60938C260.943 5.65104 261.25 6.84375 261.25 8.1875C261.25 9.64583 260.943 10.8906 260.328 11.9219C259.714 12.9531 258.812 13.7396 257.625 14.2812C256.438 14.8125 254.984 15.0781 253.266 15.0781ZM271.828 3.26562L264.297 24H261.219L269.891 1.25H271.875L271.828 3.26562ZM278.141 24L270.594 3.26562L270.547 1.25H272.531L281.234 24H278.141ZM277.75 15.5781V18.0469H264.969V15.5781H277.75ZM298.328 16.7656H301.328C301.172 18.2031 300.76 19.4896 300.094 20.625C299.427 21.7604 298.484 22.6615 297.266 23.3281C296.047 23.9844 294.526 24.3125 292.703 24.3125C291.37 24.3125 290.156 24.0625 289.062 23.5625C287.979 23.0625 287.047 22.3542 286.266 21.4375C285.484 20.5104 284.88 19.401 284.453 18.1094C284.036 16.8073 283.828 15.3594 283.828 13.7656V11.5C283.828 9.90625 284.036 8.46354 284.453 7.17188C284.88 5.86979 285.49 4.75521 286.281 3.82812C287.083 2.90104 288.047 2.1875 289.172 1.6875C290.297 1.1875 291.562 0.9375 292.969 0.9375C294.688 0.9375 296.141 1.26042 297.328 1.90625C298.516 2.55208 299.438 3.44792 300.094 4.59375C300.76 5.72917 301.172 7.04688 301.328 8.54688H298.328C298.182 7.48438 297.911 6.57292 297.516 5.8125C297.12 5.04167 296.557 4.44792 295.828 4.03125C295.099 3.61458 294.146 3.40625 292.969 3.40625C291.958 3.40625 291.068 3.59896 290.297 3.98438C289.536 4.36979 288.896 4.91667 288.375 5.625C287.865 6.33333 287.479 7.18229 287.219 8.17188C286.958 9.16146 286.828 10.2604 286.828 11.4688V13.7656C286.828 14.8802 286.943 15.9271 287.172 16.9062C287.411 17.8854 287.771 18.7448 288.25 19.4844C288.729 20.224 289.339 20.8073 290.078 21.2344C290.818 21.651 291.693 21.8594 292.703 21.8594C293.984 21.8594 295.005 21.6562 295.766 21.25C296.526 20.8438 297.099 20.2604 297.484 19.5C297.88 18.7396 298.161 17.8281 298.328 16.7656ZM308.953 1.25V24H305.938V1.25H308.953ZM322.688 1.25L313.234 11.8594L307.922 17.375L307.422 14.1562L311.422 9.75L319.062 1.25H322.688ZM319.781 24L311.359 12.9062L313.156 10.5156L323.375 24H319.781Z" fill="black"/>
</svg>
